<svg width="23" height="11" viewBox="0 0 23 11" fill="none" xmlns="http://www.w3.org/2000/svg">
<path fill-rule="evenodd" clip-rule="evenodd" d="M0.465434 0.395252C0.317898 0.520225 0.200844 0.668689 0.120977 0.832139C0.0411095 0.995588 -5.22083e-08 1.17081 -6.00993e-08 1.34777C-6.79903e-08 1.52474 0.0411095 1.69996 0.120977 1.86341C0.200844 2.02686 0.317898 2.17532 0.465434 2.30029L9.97098 10.3725C10.1181 10.4978 10.293 10.5972 10.4854 10.665C10.6779 10.7328 10.8843 10.7678 11.0926 10.7678C11.301 10.7678 11.5074 10.7328 11.6998 10.665C11.8923 10.5972 12.0671 10.4978 12.2143 10.3725L21.7198 2.3003C22.0173 2.04767 22.1844 1.70504 22.1844 1.34777C22.1844 0.99051 22.0173 0.647877 21.7198 0.395253C21.4224 0.142628 21.0189 0.000705292 20.5982 0.000705274C20.1775 0.000705256 19.774 0.142628 19.4765 0.395253L11.0926 7.51764L2.70874 0.395252C2.56158 0.269963 2.38676 0.17056 2.19428 0.102736C2.00181 0.034912 1.79547 7.69336e-08 1.58709 6.80046e-08C1.3787 5.90756e-08 1.17237 0.034912 0.979895 0.102736C0.787423 0.17056 0.612598 0.269962 0.465434 0.395252Z" fill="#797468"/>
</svg>
