<svg width="23" height="11" fill="none" xmlns="http://www.w3.org/2000/svg"><path fill-rule="evenodd" clip-rule="evenodd" d="M.465.395a1.355 1.355 0 00-.344.437 1.172 1.172 0 000 1.031c.08.164.197.312.344.437l9.506 8.072c.147.126.322.225.514.293a1.832 1.832 0 001.215 0c.192-.068.367-.167.514-.292L21.72 2.3c.297-.252.464-.595.464-.952s-.167-.7-.464-.953a1.74 1.74 0 00-1.122-.394c-.42 0-.824.142-1.121.394l-8.384 7.123L2.709.395a1.627 1.627 0 00-.515-.292 1.831 1.831 0 00-1.214 0 1.627 1.627 0 00-.515.292z" fill="#797468"/></svg>